HIERARCHY
ROOT NOSE_ROOT
{
    OFFSET 0.0 0.0 0.0
    CHANNELS 6 Xposition Yposition Zposition Zrotation Xrotation Yrotation
    JOINT LEFT_SHOULDER
    {
        OFFSET 0.9337092504914329 0.0 0.0
        CHANNELS 3 Zrotation Xrotation Yrotation
        JOINT LEFT_ELBOW
        {
            OFFSET 0.6013221453917361 0.0 0.0
            CHANNELS 3 Zrotation Xrotation Yrotation
            JOINT LEFT_WRIST
            {
                OFFSET 0.6594842216526147 0.0 0.0
                CHANNELS 3 Zrotation Xrotation Yrotation
                JOINT LEFT_THUMB_MCP
                {
                    OFFSET 0.09172733730125021 0.0 0.0
                    CHANNELS 3 Zrotation Xrotation Yrotation
                    JOINT LEFT_THUMB_PIP
                    {
                        OFFSET 0.08492545349057463 0.0 0.0
                        CHANNELS 3 Zrotation Xrotation Yrotation
                        JOINT LEFT_THUMB_DIP
                        {
                            OFFSET 0.06895741516361624 0.0 0.0
                            CHANNELS 3 Zrotation Xrotation Yrotation
                            End Site
                            {
                                OFFSET 0.0 0.0 0.006895741516361626
                            }
                        }
                    }
                }
                JOINT LEFT_INDEX_FINGER_MCP
                {
                    OFFSET 0.17124607753576 0.0 0.0
                    CHANNELS 3 Zrotation Xrotation Yrotation
                    JOINT LEFT_INDEX_FINGER_PIP
                    {
                        OFFSET 0.08179689552950352 0.0 0.0
                        CHANNELS 3 Zrotation Xrotation Yrotation
                        JOINT LEFT_INDEX_FINGER_DIP
                        {
                            OFFSET 0.04226105895425937 0.0 0.0
                            CHANNELS 3 Zrotation Xrotation Yrotation
                            End Site
                            {
                                OFFSET 0.0 0.0 0.0042261058954259365
                            }
                        }
                    }
                }
                JOINT LEFT_MIDDLE_FINGER_MCP
                {
                    OFFSET 0.1494457580074503 0.0 0.0
                    CHANNELS 3 Zrotation Xrotation Yrotation
                    JOINT LEFT_MIDDLE_FINGER_PIP
                    {
                        OFFSET 0.08574758711140573 0.0 0.0
                        CHANNELS 3 Zrotation Xrotation Yrotation
                        JOINT LEFT_MIDDLE_FINGER_DIP
                        {
                            OFFSET 0.04230595408913265 0.0 0.0
                            CHANNELS 3 Zrotation Xrotation Yrotation
                            End Site
                            {
                                OFFSET 0.0 0.0 0.004230595408913266
                            }
                        }
                    }
                }
                JOINT LEFT_RING_FINGER_MCP
                {
                    OFFSET 0.1402638513193883 0.0 0.0
                    CHANNELS 3 Zrotation Xrotation Yrotation
                    JOINT LEFT_RING_FINGER_PIP
                    {
                        OFFSET 0.08293790030327888 0.0 0.0
                        CHANNELS 3 Zrotation Xrotation Yrotation
                        JOINT LEFT_RING_FINGER_DIP
                        {
                            OFFSET 0.040602815869159474 0.0 0.0
                            CHANNELS 3 Zrotation Xrotation Yrotation
                            End Site
                            {
                                OFFSET 0.0 0.0 0.004060281586915948
                            }
                        }
                    }
                }
                JOINT LEFT_PINKY_MCP
                {
                    OFFSET 0.14587534194291277 0.0 0.0
                    CHANNELS 3 Zrotation Xrotation Yrotation
                    JOINT LEFT_PINKY_PIP
                    {
                        OFFSET 0.06799065323158118 0.0 0.0
                        CHANNELS 3 Zrotation Xrotation Yrotation
                        JOINT LEFT_PINKY_DIP
                        {
                            OFFSET 0.03480328362579703 0.0 0.0
                            CHANNELS 3 Zrotation Xrotation Yrotation
                            End Site
                            {
                                OFFSET 0.0 0.0 0.0034803283625797037
                            }
                        }
                    }
                }
            }
        }
    }
    JOINT RIGHT_SHOULDER
    {
        OFFSET -0.9337092504914329 0.0 0.0
        CHANNELS 3 Zrotation Xrotation Yrotation
        JOINT RIGHT_ELBOW
        {
            OFFSET -0.6013221453917361 0.0 0.0
            CHANNELS 3 Zrotation Xrotation Yrotation
            JOINT RIGHT_WRIST
            {
                OFFSET -0.6594842216526147 0.0 0.0
                CHANNELS 3 Zrotation Xrotation Yrotation
                JOINT RIGHT_THUMB_MCP
                {
                    OFFSET -0.09172733730125021 0.0 0.0
                    CHANNELS 3 Zrotation Xrotation Yrotation
                    JOINT RIGHT_THUMB_PIP
                    {
                        OFFSET -0.08492545349057463 0.0 0.0
                        CHANNELS 3 Zrotation Xrotation Yrotation
                        JOINT RIGHT_THUMB_DIP
                        {
                            OFFSET -0.06895741516361624 0.0 0.0
                            CHANNELS 3 Zrotation Xrotation Yrotation
                            End Site
                            {
                                OFFSET 0.0 0.0 0.006895741516361626
                            }
                        }
                    }
                }
                JOINT RIGHT_INDEX_FINGER_MCP
                {
                    OFFSET -0.17124607753576 0.0 0.0
                    CHANNELS 3 Zrotation Xrotation Yrotation
                    JOINT RIGHT_INDEX_FINGER_PIP
                    {
                        OFFSET -0.08179689552950352 0.0 0.0
                        CHANNELS 3 Zrotation Xrotation Yrotation
                        JOINT RIGHT_INDEX_FINGER_DIP
                        {
                            OFFSET -0.04226105895425937 0.0 0.0
                            CHANNELS 3 Zrotation Xrotation Yrotation
                            End Site
                            {
                                OFFSET 0.0 0.0 0.0042261058954259365
                            }
                        }
                    }
                }
                JOINT RIGHT_MIDDLE_FINGER_MCP
                {
                    OFFSET -0.1494457580074503 0.0 0.0
                    CHANNELS 3 Zrotation Xrotation Yrotation
                    JOINT RIGHT_MIDDLE_FINGER_PIP
                    {
                        OFFSET -0.08574758711140573 0.0 0.0
                        CHANNELS 3 Zrotation Xrotation Yrotation
                        JOINT RIGHT_MIDDLE_FINGER_DIP
                        {
                            OFFSET -0.04230595408913265 0.0 0.0
                            CHANNELS 3 Zrotation Xrotation Yrotation
                            End Site
                            {
                                OFFSET 0.0 0.0 0.004230595408913266
                            }
                        }
                    }
                }
                JOINT RIGHT_RING_FINGER_MCP
                {
                    OFFSET -0.1402638513193883 0.0 0.0
                    CHANNELS 3 Zrotation Xrotation Yrotation
                    JOINT RIGHT_RING_FINGER_PIP
                    {
                        OFFSET -0.08293790030327888 0.0 0.0
                        CHANNELS 3 Zrotation Xrotation Yrotation
                        JOINT RIGHT_RING_FINGER_DIP
                        {
                            OFFSET -0.040602815869159474 0.0 0.0
                            CHANNELS 3 Zrotation Xrotation Yrotation
                            End Site
                            {
                                OFFSET 0.0 0.0 0.004060281586915948
                            }
                        }
                    }
                }
                JOINT RIGHT_PINKY_MCP
                {
                    OFFSET -0.14587534194291277 0.0 0.0
                    CHANNELS 3 Zrotation Xrotation Yrotation
                    JOINT RIGHT_PINKY_PIP
                    {
                        OFFSET -0.06799065323158118 0.0 0.0
                        CHANNELS 3 Zrotation Xrotation Yrotation
                        JOINT RIGHT_PINKY_DIP
                        {
                            OFFSET -0.03480328362579703 0.0 0.0
                            CHANNELS 3 Zrotation Xrotation Yrotation
                            End Site
                            {
                                OFFSET 0.0 0.0 0.0034803283625797037
                            }
                        }
                    }
                }
            }
        }
    }
}
MOTION
Frames: 4
Frame Time: 0.03333333333333333
0.8274531742842194 0.35723111480022657 -1.5046409831422987 -164.0166826900092 39.591104743173176 169.38601081100995 7.847555314546508 -18.696923184363907 80.40191173755295 -74.71111898523642 -8.317671882348045e-15 5.654698513218155e-15 -45.19522135796179 2.3282175442630457 20.302717864844013 -157.50263311479577 -6.507218896267925 -177.31273420189754 -15.73781294852657 -1.1123003147003625 -0.3134229241945972 -10.999534255773293 2.687586367347649 0.5221851908193681 -124.16043463784182 -0.6638114673812259 -172.1503291797928 -13.18027688781342 -2.161222144028912 -0.5059920808752167 -9.862933664823974 -3.6043313670442187 -0.6262158530293005 -123.21000017404687 11.46481008362294 -173.32220753148763 -5.522813296447436 -11.864243260584708 -1.1388341584716115 -176.91402697481624 -27.236042115601826 -178.5866013325993 82.35411938912776 74.95736842327948 -23.673417197226094 -4.213364914756537 15.80341570654082 1.1493763810691782 -66.19171465728844 -77.07316930297422 -65.64382106207385 64.19328767982844 26.310357179581594 -6.515711938908774 -7.293108271112759 29.314498514343846 3.5854515757898913 -17.993366748569976 -43.95220674125334 -12.703521225808602 27.7678291966999 -22.49012491390869 -71.29897947289383 72.42002475324175 -3.940955105272528e-15 1.0769212502377314e-14 22.18828225978078 70.07660232520345 -20.978993863012505 -115.07662216784209 73.1877305027055 131.86472051526368 22.147861752030884 25.68142126721977 -10.003717696467104 9.6277432888561 10.311036434504018 -1.7391569967420295 155.00874105681038 61.32246892458379 -153.0043929502989 157.4507620501171 69.04509716068699 -158.80575204941908 29.697728910913355 -63.54310569602067 27.04912222159697 105.12803298054747 73.88733106351127 -105.71658381103862 163.75751465924344 25.13617938469222 -172.94556536950788 20.40016432802592 -24.05676764918127 8.62050528091609 6.582743333560841 26.8129102581145 -20.30998027538772 139.63644868959594 -63.3866364192079 142.7682230697153 21.051664362666695 -19.96944285408842 7.4886113523129785 -9.552656178748366 -14.355205162944543 -20.25465836884268 19.675810577145576 -35.641860041398225 11.770046021621075 18.115033640975295 -30.973669428612627 9.556755975774301
0.8238527960422577 0.35317982638242934 -1.4834496084622337 -163.538555513991 39.95809911008619 168.99345788856192 8.325002744062344 -18.8668134772739 80.52243211886089 -74.49286092114468 -1.1393315231616222e-14 -8.662558033805979e-15 -45.101800253141796 2.4866297699424353 20.10638270615289 -157.51034137500184 -6.300253634920139 -177.3987235198864 -15.637225238726348 -1.1147258617871565 -0.31199512624866893 -10.894920606661906 2.6992837895578785 0.5193455684816682 -124.44010451951368 -0.5484292750540907 -172.3654443674694 -13.046015569893415 -2.173149409722516 -0.5034160675808717 -9.778826324031849 -3.6209421355699285 -0.6236273963752046 -123.47433081833493 11.628797609198374 -173.53500946760872 -5.472198994514861 -11.90603992523049 -1.132252636446098 -176.9432871818327 -27.346270571479124 -178.59479504411664 81.35166111983692 75.05628906547892 -22.94772084788569 -4.188130265541483 15.731858845174257 1.1374289878755088 -66.02164434735553 -77.19245095436695 -65.48111302586852 63.767659472899126 26.352997268057123 -6.2794240973662285 -7.240543294696395 29.361482491019867 3.5645822428278673 -17.848636646596677 -44.09505956239417 -12.629384626350486 27.44645266892422 -22.78452159288952 -71.75677475452973 71.62357438468689 5.7139551704275945e-16 3.509760286020657e-15 14.587733428809598 58.812987897707444 -12.551655182896317 -145.71513433859496 61.14653154662795 162.27341807795284 20.184355189770315 19.843460546388638 -7.113090719900848 9.86918065628157 8.41148125656718 -1.4578109798569365 159.96644351732 48.147771779968615 -160.6089881722072 16.884350043807377 68.07191916143422 -15.725408641990327 16.61445734070186 -42.41185382101143 11.378733406685846 140.4093149032751 63.180873085192424 -143.57110547354617 168.1079949204246 38.881459263855774 -172.469841764324 12.537672364572968 -16.161996152436778 3.542184076457098 5.8345554785145195 37.28229169545015 -22.19080036700122 145.44788325320417 -69.68259094530372 147.14653734735222 16.07603926996093 -13.139797478227832 3.748194501397131 -12.170210013684942 -7.146093095182024 -18.868337089067012 13.995712385211363 -27.249982317323077 6.510673993818242 15.762960435474616 -27.25222264981431 7.364951991736602
0.8202524178002961 0.3491285379646321 -1.4622582337821686 -163.05618638063507 40.328968580429986 168.59228405932228 8.798326413276218 -19.04067723649753 80.64537468491419 -74.26149934745354 1.8474964169449622e-15 1.3366879309001276e-14 -45.00613676440573 2.6440718432016093 19.907307119640098 -157.51866294119733 -6.091061368355351 -177.48568438197051 -15.536635285469025 -1.1172070980804436 -0.31057565124303255 -10.790857704867543 2.711143902717909 0.5165232314659466 -124.71955712559038 -0.4294269529788737 -172.58139149426248 -12.912500313564221 -2.185183781194089 -0.5008414762547336 -9.694534181514845 -3.6377562953850098 -0.6210141488150223 -123.73749445969511 11.796627841620051 -173.7488942400938 -5.4221290435946985 -11.947068450457392 -1.1256417339366216 -176.97246361298 -27.456408079119402 -178.6030590594123 80.3435883505803 75.15762410785277 -22.21579768379376 -4.162991704056664 15.660489989265269 1.1255803733085838 -65.88100111443205 -77.31425418057597 -65.34855547129118 63.34156629297164 26.394587530779877 -6.0417503519436675 -7.187987548077619 29.412186038368425 3.544051266712689 -17.705646415731945 -44.24305364358605 -12.557150837526041 27.102132891744684 -23.076778843018833 -72.23067705322767 70.82323020806213 -1.2414056368826621e-14 1.2728470333359168e-14 11.723298777883304 47.374474028572656 -8.681326618384636 -156.7299024287558 46.24315039476786 173.4905358164975 18.65032413533911 14.143552804640509 -4.714661463749756 10.130189492451139 6.693343197073856 -1.1930143244811262 161.7165929973143 35.500899275735165 -165.34520066842782 8.735752123425874 33.94033030363393 -4.903567277835869 12.354691707183335 -19.92500372680342 4.268928956047134 151.46702158644428 49.59053237596879 -157.5108825724211 170.1927271210101 58.44379946394692 -171.62062617466657 7.613226079094847 3.8573623954267973 -0.5151850599898067 4.902474348457961 47.12072718167961 -23.575724268832886 137.57562157525172 -79.38489785064944 138.06771836223953 13.503225257337832 -8.774003366124468 2.097811046651038 -14.552151958451438 0.373946780268887 -16.700968039256384 10.24514801324445 -16.489950442216998 2.93687664080842 14.705059142111047 -26.020397391228922 6.567539386607415
0.8166520395583344 0.3450772495468349 -1.4410668591021034 -162.56931805368725 40.703733466902946 168.18220355877412 9.267597108567033 -19.218636612215967 80.77086238659491 -74.01681841631219 -7.600246536265766e-15 -1.3694798595493579e-14 -44.908174730316794 2.8003639349572906 19.705579143780188 -157.52759136399325 -5.879804242863863 -177.57354035708033 -15.436084857815265 -1.1197432205090683 -0.3091648374162613 -10.687382563606553 2.7231639527473326 0.5137188706167328 -124.99867699577223 -0.30688462960781326 -172.79798203452242 -12.779797884851217 -2.1973186012598895 -0.4982691277955516 -9.610123998721232 -3.6547598233028555 -0.61837705897605 -123.9993915423245 11.968167896095055 -173.96368106447903 -5.37262963273049 -11.987247259957892 -1.1190025671151982 -177.0015440079036 -27.56631580116648 -178.61139344551347 79.33044934531931 75.26154296858667 -21.478153562589604 -4.137959552218031 15.589346448249374 1.1138353802678718 -65.77169048536364 -77.43868489934916 -65.24805123044453 62.91521660237509 26.435207238554373 -5.802921937656416 -7.135467208280577 29.4667250193452 3.5238747274474553 -17.564501424850583 -44.396340340289115 -12.486901333893712 26.733898727952244 -23.36644355606951 -72.7212757043627 70.01948206434646 -5.990408896424653e-15 8.079250093383127e-15 10.814082850088754 36.78841537308012 -6.525786613316494 -161.65723765379198 31.748666313695114 178.90122581942998 17.4481073478786 8.708304009985872 -2.7244680110398636 10.406211648308602 5.1585581642624305 -0.9459853664377934 161.94372308164031 24.203920028198812 -168.85127359496425 9.546902523833701 14.879234577066839 -2.4728835380124585 11.123573093793004 -9.188894336612032 1.798389961549251 155.30156450736078 37.07937416040883 -164.50169685472594 10.029357772379042 74.69212669896363 -9.680380694109338 9.22307268825011 59.592532429516936 -7.971997799631927 3.4344391719894865 55.57418185236233 -24.137064336659165 16.632606478111715 -75.59883085565932 16.137586577016283 12.740508835797689 -16.28100537393769 3.6269878586377975 -16.848565076094562 7.507594862106662 -14.133942763668244 7.97495097135357 -3.209337703537552 0.449368002246429 14.63444045902953 -28.434206505441004 7.0874007348520704
